<?xml version="1.0" encoding="utf-8"?>
<!-- Generator: Adobe Illustrator 27.0.0, SVG Export Plug-In . SVG Version: 6.00 Build 0)  -->
<svg version="1.1" id="图层_1" xmlns="http://www.w3.org/2000/svg" xmlns:xlink="http://www.w3.org/1999/xlink" x="0px" y="0px"
	 viewBox="0 0 200 200" style="enable-background:new 0 0 200 200;" xml:space="preserve">
<style type="text/css">
	.st0{fill:#A6C3FF;}
	.st1{fill:#6B9CFF;}
	.st2{fill:#FFFFFF;stroke:#FFFFFF;stroke-width:2;stroke-miterlimit:10;}
</style>
<path class="st0" d="M200,66.2h-16.2v25H200v17.5h-16.2v25H200V150h-17.5v17.5c0,8.8-7.5,16.2-16.2,16.2H150V200h-17.5v-16.2h-25
	V200H91.2v-16.2h-25V200H50v-17.5H32.5c-8.8,0-16.2-7.5-16.2-16.2V150H0v-17.5h16.2v-25H0V91.2h16.2v-25H0V50h17.5V32.5
	c0-8.8,7.5-16.2,16.2-16.2H50V0h16.2v16.2h25V0h17.5v16.2h25V0H150v17.5h17.5c8.8,0,16.2,7.5,16.2,16.2V50H200V66.2z M166.2,166.2
	h1.2V33.8H33.8v132.5H166.2z"/>
<path class="st1" d="M30.8,30.8h138.5v138.5H30.8V30.8z"/>
<g>
	<path class="st2" d="M64.9,79.4c1.6,0,3.8,0,6.7,0.1l3.5,0.1l-0.8,6L71,85.5c-3.7-0.1-6.1-0.1-7-0.1h-2.5c-3.4,0-5.9,0.8-7.6,2.5
		c-1.7,1.7-2.7,4.4-3.3,8.1l-1,7.9c-0.1,1.5-0.2,2.5-0.2,3c0,2.6,0.6,4.6,1.9,5.8s3.4,1.8,6.3,1.8h2.7c2,0,5.2-0.1,9.6-0.4l1.4-0.1
		l-0.4,6c-3.7,0.3-7.4,0.4-11.1,0.4h-2.7c-4.9,0-8.5-1.1-10.8-3.1c-2.3-2-3.5-5.2-3.5-9.6c0-1.1,0.1-2.5,0.3-4.2l0.8-7.2
		c0.8-5.9,2.6-10.2,5.6-12.9c2.9-2.7,7.2-4,12.9-4.1H64.9z"/>
	<path class="st2" d="M101.8,79.4c3.9,0,6.9,0.9,9,2.7c2.1,1.8,3.2,4.3,3.2,7.6c0,0.9,0,1.6-0.1,2.1l-0.3,2.8c-0.5,4-2.1,7-4.7,9.2
		c-2.6,2.1-6.1,3.2-10.5,3.2H87l-1.7,13.3h-6.6l5.1-40.9H101.8z M99.3,101.1c2.3,0,4.1-0.5,5.3-1.5c1.2-1,2-2.5,2.3-4.6l0.4-3.3
		c0-0.3,0.1-0.6,0.1-1c0-1.8-0.5-3.1-1.5-3.9c-1-0.8-2.5-1.2-4.6-1.3H89.7l-2,15.6H99.3z"/>
	<path class="st2" d="M136.4,114.6c3.5,0,6-0.9,7.7-2.5c1.7-1.6,2.8-4.3,3.3-7.9l3.1-24.7h6.6l-3,24.3c-0.8,5.8-2.6,10.1-5.5,12.7
		c-2.9,2.6-7.2,4-12.9,4h-2.2c-5,0-8.6-1.1-10.9-3.1c-2.3-2-3.5-5.2-3.5-9.6c0-1.1,0.1-2.5,0.3-4.1l3.1-24.3h6.6l-3.1,24.7
		c-0.1,1.5-0.2,2.4-0.2,2.9c0,2.7,0.7,4.6,2,5.7c1.3,1.2,3.5,1.8,6.5,1.8H136.4z"/>
</g>
</svg>
