<?xml version="1.0" encoding="utf-8"?>
<!-- Generator: Adobe Illustrator 27.0.0, SVG Export Plug-In . SVG Version: 6.00 Build 0)  -->
<svg version="1.1" id="图层_1" xmlns="http://www.w3.org/2000/svg" xmlns:xlink="http://www.w3.org/1999/xlink" x="0px" y="0px"
	 viewBox="0 0 200 200" style="enable-background:new 0 0 200 200;" xml:space="preserve">
<style type="text/css">
	.st0{fill:#A6C3FF;}
	.st1{fill:#6B9CFF;}
	.st2{fill:#FFFFFF;stroke:#FFFFFF;stroke-width:3;stroke-miterlimit:10;}
</style>
<path class="st0" d="M200,66.2h-16.2v25H200v17.5h-16.2v25H200V150h-17.5v17.5c0,8.8-7.5,16.2-16.2,16.2H150V200h-17.5v-16.2h-25
	V200H91.2v-16.2h-25V200H50v-17.5H32.5c-8.8,0-16.2-7.5-16.2-16.2V150H0v-17.5h16.2v-25H0V91.2h16.2v-25H0V50h17.5V32.5
	c0-8.8,7.5-16.2,16.2-16.2H50V0h16.2v16.2h25V0h17.5v16.2h25V0H150v17.5h17.5c8.8,0,16.2,7.5,16.2,16.2V50H200V66.2z M166.2,166.2
	h1.2V33.8H33.8v132.5h132.4V166.2z"/>
<path class="st1" d="M30.8,30.8h138.5v138.5H30.8V30.8z"/>
<g>
	<path class="st2" d="M97,125.9c6-0.1,10.4-1.5,13.4-4.5s4.8-7.6,5.7-14.1l5.3-43.8h11.4l-5.2,43.2c-1.4,10.4-4.5,17.9-9.6,22.6
		c-5,4.7-12.4,7.1-22.3,7.2H92c-8.6-0.1-14.9-1.9-18.9-5.5c-4-3.6-6-9.3-6-17c0-1.9,0.2-4.4,0.5-7.3L73,63.5h11.4l-5.3,43.8
		c-0.3,2.6-0.4,4.3-0.4,5.2c0,4.7,1.1,8.1,3.4,10.2c2.3,2.1,6,3.1,11.2,3.2H97z"/>
</g>
</svg>
