<?xml version="1.0" standalone="no"?><!DOCTYPE svg PUBLIC "-//W3C//DTD SVG 1.1//EN" "http://www.w3.org/Graphics/SVG/1.1/DTD/svg11.dtd"><svg t="1653876327183" class="icon" viewBox="0 0 1024 1024" version="1.1" xmlns="http://www.w3.org/2000/svg" p-id="2812" xmlns:xlink="http://www.w3.org/1999/xlink" width="200" height="200"><defs><style type="text/css"></style></defs><path d="M809.2 525.5h120.5c13.1 0 23.6-10.6 23.6-23.6 0-13-10.6-23.6-23.6-23.6H809.2c-4.8 0-9.1 1.8-12.8 4.3v-71.5c0-4.9-0.7-9.6-1.4-14.4 4 3.1 8.8 5.3 14.3 5.3h120.5c13.1 0 23.6-10.6 23.6-23.6 0-13-10.6-23.6-23.6-23.6H809.2c-10.4 0-18.9 6.8-22.1 16.1-15.1-32-47.5-54.3-85.2-54.3H409c-52.2 0-94.5 42.3-94.5 94.5v305.3c0 33.1 17 62.1 42.7 78.9-3.7 4.2-6.1 9.5-6.1 15.5v123.6c0 13 10.6 23.6 23.6 23.6 13.1 0 23.6-10.6 23.6-23.6V810.8c0-0.4-0.2-0.7-0.2-1.1 3.6 0.4 7.1 1.1 10.9 1.1h62.6v123.6c0 13 10.6 23.6 23.6 23.6s23.6-10.6 23.6-23.6V810.8H592v123.6c0 13 10.6 23.6 23.6 23.6 13.1 0 23.6-10.6 23.6-23.6V810.8h62.6c3.7 0 7.3-0.7 10.9-1.1 0 0.4-0.2 0.7-0.2 1.1v123.6c0 13 10.6 23.6 23.6 23.6 13.1 0 23.6-10.6 23.6-23.6V810.8c0-6-2.4-11.4-6.1-15.5 14.5-9.5 26-22.9 33.4-38.7 3.2 9.3 11.7 16.1 22.1 16.1h120.5c13.1 0 23.6-10.6 23.6-23.6 0-13-10.6-23.6-23.6-23.6H809.2c-5.5 0-10.3 2.2-14.3 5.3 0.7-4.7 1.4-9.4 1.4-14.4v-71.5c3.7 2.5 8 4.3 12.8 4.3h120.5c13.1 0 23.6-10.6 23.6-23.6 0-13-10.6-23.6-23.6-23.6H809.2c-4.8 0-9.1 1.8-12.8 4.3v-84.9c3.7 2.3 8 4.1 12.8 4.1z" fill="#fbeccf" p-id="2813"></path><path d="M585 384.4c13 0 23.6 10.6 23.6 23.6v187.8c0 13-10.6 23.6-23.6 23.6H405.4c-13 0-23.6-10.6-23.6-23.6V408c0-13 10.6-23.6 23.6-23.6H585m0-47.2H405.4c-39.1 0-70.9 31.7-70.9 70.9v187.8c0 39.1 31.7 70.9 70.9 70.9H585c39.1 0 70.9-31.7 70.9-70.9V408c-0.1-39.1-31.8-70.8-70.9-70.8z" fill="#112378" p-id="2814"></path><path d="M893 463.8c13.1 0 23.6-10.6 23.6-23.6S906 416.6 893 416.6H776.3v-76.3H893c13.1 0 23.6-10.6 23.6-23.6S906.1 293 893 293H774.8c-6.3-39.1-36.5-70.2-75.3-77.6V107.6c0-13-10.6-23.6-23.6-23.6s-23.6 10.6-23.6 23.6v106h-73.2v-106c0-13-10.6-23.6-23.6-23.6-13.1 0-23.6 10.6-23.6 23.6v106h-73.2v-106c0-13-10.6-23.6-23.6-23.6s-23.6 10.6-23.6 23.6v106h-73.2v-106c0-13-10.6-23.6-23.6-23.6s-23.6 10.6-23.6 23.6v107.8c-38.8 7.4-68.9 38.4-75.2 77.6h-113c-13.1 0-23.6 10.6-23.6 23.6s10.6 23.6 23.6 23.6h111.2v76.3H102.9c-13.1 0-23.6 10.6-23.6 23.6s10.6 23.6 23.6 23.6h111.2V540H102.9c-13.1 0-23.6 10.6-23.6 23.6s10.6 23.6 23.6 23.6h111.2v76.3H102.9c-13.1 0-23.6 10.6-23.6 23.6 0 13 10.6 23.6 23.6 23.6h112.7c6.3 39.1 36.5 70.2 75.2 77.6v107.8c0 13 10.6 23.6 23.6 23.6s23.6-10.6 23.6-23.6v-106h73.2v106c0 13 10.6 23.6 23.6 23.6s23.6-10.6 23.6-23.6v-106h73.2v106c0 13 10.6 23.6 23.6 23.6 13.1 0 23.6-10.6 23.6-23.6v-106H652v106c0 13 10.6 23.6 23.6 23.6s23.6-10.6 23.6-23.6V788.4c38.8-7.4 68.9-38.4 75.3-77.6H893c13.1 0 23.6-10.6 23.6-23.6 0-13-10.6-23.6-23.6-23.6H776.3v-76.3H893c13.1 0 23.6-10.6 23.6-23.6S906 540.1 893 540.1H776.3v-76.3H893zM729.1 695.7c0 26.1-21.2 47.2-47.2 47.2H308.6c-26 0-47.2-21.2-47.2-47.2V308.1c0-26.1 21.2-47.2 47.2-47.2h373.2c26 0 47.2 21.2 47.2 47.2v387.6z" fill="#112378" p-id="2815"></path><path d="M518.1 437.3h33.1v14.5h-33.1z" fill="#FFD939" p-id="2816"></path><path d="M574.8 413.6h-80.3v61.8h80.3v-61.8z" fill="#112378" p-id="2817"></path></svg>